Genre:Drama 
Language:Romanian
IMDb:http://www.imdb.com/title/tt1470024/
Source:DVD


Format : MPEG-4
Format profile : Base Media
Codec ID : mp42
File size : 947 MiB
Duration : 1h 35mn
Overall bit rate : 1 380 Kbps


Video
Duration : 1h 35mn
Bit rate mode : Constant
Bit rate : 995 Kbps
Nominal bit rate : 64.0 Kbps
Width : 720 pixels
Height : 304 pixels
Display aspect ratio : 2.35:1
Frame rate mode : Constant
Frame rate : 23.976 fps
Color space : YUV
Chroma subsampling : 4:2:0
Bit depth : 8 bits
Scan type : Progressive
Bits/(Pixel*Frame) : 0.190
Stream size : 683 MiB (72%)
Writing library : XviD 1.2.1 (UTC 2008-12-04)


Audio
ID : 2
Format : AAC
Format/Info : Advanced Audio Codec
Format version : Version 4
Format profile : LC
Codec ID : 40
Duration : 1h 35mn
Bit rate mode : Constant
Bit rate : 384 Kbps
Channel(s) : 6 channels
Channel positions : Front: L C R, Side: L R, LFE
Sampling rate : 48.0 KHz
Stream size : 262 MiB (28%)


Plot:
Paul Hanganu loves two women. Adriana his wife and the mother of their daughter, the woman with whom he's shared the thrills of the past ten years, and Raluca the woman who has made him redefine himself. He has to leave one of them before Christmas.










================================== 
http://thepiratebay.org/user/hiest
==================================










Screens:
 
http://rapidhdd.com/images/286166Marti,%20dupa%20Craciun%202010%20DvDRip%20RERIP%20XviD%20Feel-Free.mp4_thumbs_%5B2010.12.17_19.13.04%5D.png